<svg data-v-423bf9ae="" xmlns="http://www.w3.org/2000/svg" viewBox="0 0 307 90" class="iconLeft"><!----><!----><!----><g data-v-423bf9ae="" id="c696aa89-55da-4d66-9856-e05c80335e90" fill="#000000" transform="matrix(4.501125629108517,0,0,4.501125629108517,104.49346787517266,-0.618904869691896)"><path d="M4.25 6.55C2.17 6.55 0.68 8.20 0.68 10.14C0.68 12.09 2.17 13.73 4.25 13.73C5.25 13.73 6.03 13.33 6.30 13.06L6.30 11.92C5.78 12.30 5.17 12.63 4.25 12.63C2.79 12.63 1.85 11.47 1.85 10.14C1.85 8.82 2.79 7.64 4.25 7.64C5.17 7.64 5.78 7.97 6.30 8.35L6.30 7.22C6.03 6.96 5.25 6.55 4.25 6.55ZM10.96 6.55C9.09 6.55 7.67 7.96 7.67 10.21C7.67 12.29 9.09 13.73 10.86 13.73C11.89 13.73 12.73 13.08 13.21 12.36L13.21 13.52L14.33 13.52L14.33 6.69L13.21 6.69L13.21 7.60C12.62 6.95 11.74 6.55 10.96 6.55ZM11.17 7.64C12.00 7.64 12.62 8.07 13.19 8.78L13.21 10.09C13.22 11.55 12.28 12.63 11.03 12.63C9.71 12.63 8.83 11.54 8.83 10.21C8.83 8.89 9.71 7.64 11.17 7.64ZM19.26 4.54C19.65 4.53 20.06 4.65 20.33 4.83L20.33 3.84C20.06 3.61 19.66 3.47 19.20 3.47C18.17 3.47 17.08 4.21 17.08 5.81L17.08 6.69L16.00 6.69L16.00 7.74L17.08 7.74L17.08 13.52L18.20 13.52L18.20 7.74L20.19 7.74L20.19 6.69L18.20 6.69L18.20 5.93C18.20 4.92 18.59 4.57 19.26 4.54ZM27.64 9.87C27.64 8.00 26.61 6.55 24.50 6.55C22.57 6.55 21.21 8.20 21.21 10.14C21.21 12.09 22.70 13.73 24.77 13.73C25.84 13.73 26.55 13.26 26.82 12.99L26.82 11.85C26.37 12.18 25.76 12.63 24.77 12.63C23.46 12.63 22.56 11.69 22.39 10.54L27.64 10.54ZM22.42 9.58C22.61 8.50 23.38 7.64 24.50 7.64C25.46 7.64 26.40 8.26 26.54 9.58ZM31.53 6.55C30.06 6.55 29.12 7.41 29.12 8.57C29.12 9.35 29.37 9.98 30.43 10.38L31.45 10.75C32.09 10.98 32.43 11.20 32.43 11.63C32.43 12.21 31.90 12.63 31.04 12.63C30.35 12.63 29.39 12.21 29.01 11.92L29.01 13.13C29.33 13.36 30.31 13.73 31.12 13.73C32.58 13.73 33.63 12.80 33.63 11.63C33.63 10.86 33.20 10.25 32.31 9.94L31.16 9.53C30.53 9.31 30.32 8.91 30.32 8.57C30.32 8.13 30.75 7.64 31.61 7.64C32.29 7.64 33.02 7.98 33.40 8.27L33.40 7.07C33.09 6.84 32.33 6.55 31.53 6.55ZM38.16 6.55C36.29 6.55 34.86 7.96 34.86 10.21C34.86 12.29 36.29 13.73 38.05 13.73C39.09 13.73 39.92 13.08 40.40 12.36L40.40 16.80L41.52 16.80L41.52 6.69L40.40 6.69L40.40 7.60C39.81 6.95 38.94 6.55 38.16 6.55ZM38.36 7.66C39.20 7.66 39.81 8.07 40.39 8.78L40.40 10.09C40.41 11.55 39.47 12.62 38.23 12.62C36.90 12.62 36.03 11.54 36.03 10.21C36.03 8.89 36.90 7.66 38.36 7.66ZM44.97 13.52L44.97 3.68L43.85 3.68L43.85 13.52Z"></path></g><!----><g data-v-423bf9ae="" id="8e8ea034-856a-4dc0-a9dd-1e08d4a23434" transform="matrix(1.0358996272019545,0,0,1.0358996272019545,-9.100213151649058,-6.237188883758918)" stroke="none" fill="#754220"><path d="M23.706 41.28c7.597 1.779 17.713 2.866 28.828 2.866 17.174 0 31.972-2.592 38.769-6.329l2.217-14.813c-7.598 2.574-20.597 4.271-35.363 4.271-23.43 0-42.423-4.272-42.423-9.542 0-5.271 18.993-9.543 42.423-9.543 10.436 0 19.985.849 27.375 2.254-7.822-2.333-20.043-3.837-33.79-3.837C28.137 6.607 9 11.036 9 16.501c0 .134.021.267.043.4h-.004l2.959 19.773c1.459 1.119 3.61 2.157 6.315 3.082-3.398 1.329-5.356 2.877-5.356 4.532 0 .121.019.24.04.36h-.004l2.672 17.827c1.561 1.194 4 2.384 7.109 3.463-4.18 1.34-6.65 2.984-6.65 4.763 0 .11.018.22.036.33h-.004L18.6 85.218c4.674 3.578 17.887 8.27 33.47 8.27 14.18 0 25.871-3.191 31.481-6.271l2.359-13.794c-6.273 2.122-20.173 6.16-32.365 6.16-19.345 0-31.862-3.522-31.862-7.866 0-1.61 2.161-3.108 5.861-4.355 6.696 1.72 15.312 2.907 24.73 2.907 15.511 0 28.876-3.392 35.012-6.762l2.004-14.938c-6.861 2.321-18.602 5.435-31.937 5.435-21.161 0-38.315-3.852-38.315-8.604.001-1.494 1.693-2.897 4.668-4.12z"></path></g><!----></svg>