<?xml version="1.0" encoding="utf-8"?>
<svg viewBox="0 0 500 500" xmlns="http://www.w3.org/2000/svg">
  <g data-v-423bf9ae="" id="8e8ea034-856a-4dc0-a9dd-1e08d4a23434" transform="matrix(1.0359, 0, 0, 1.0359, 45.952133, 36.847057)" stroke="none" fill="#754220">
    <path d="M23.706 41.28c7.597 1.779 17.713 2.866 28.828 2.866 17.174 0 31.972-2.592 38.769-6.329l2.217-14.813c-7.598 2.574-20.597 4.271-35.363 4.271-23.43 0-42.423-4.272-42.423-9.542 0-5.271 18.993-9.543 42.423-9.543 10.436 0 19.985.849 27.375 2.254-7.822-2.333-20.043-3.837-33.79-3.837C28.137 6.607 9 11.036 9 16.501c0 .134.021.267.043.4h-.004l2.959 19.773c1.459 1.119 3.61 2.157 6.315 3.082-3.398 1.329-5.356 2.877-5.356 4.532 0 .121.019.24.04.36h-.004l2.672 17.827c1.561 1.194 4 2.384 7.109 3.463-4.18 1.34-6.65 2.984-6.65 4.763 0 .11.018.22.036.33h-.004L18.6 85.218c4.674 3.578 17.887 8.27 33.47 8.27 14.18 0 25.871-3.191 31.481-6.271l2.359-13.794c-6.273 2.122-20.173 6.16-32.365 6.16-19.345 0-31.862-3.522-31.862-7.866 0-1.61 2.161-3.108 5.861-4.355 6.696 1.72 15.312 2.907 24.73 2.907 15.511 0 28.876-3.392 35.012-6.762l2.004-14.938c-6.861 2.321-18.602 5.435-31.937 5.435-21.161 0-38.315-3.852-38.315-8.604.001-1.494 1.693-2.897 4.668-4.12z"/>
  </g>
</svg>